# Blender 5.0.1
# www.blender.org
mtllib tenda_mina.mtl
o Tenda_Kain
v 4.000000 0.000000 4.000000
v 4.000000 0.000000 -4.000000
v -4.000000 0.000000 -4.000000
v -4.000000 0.000000 4.000000
v 4.000000 3.000000 4.000000
v 4.000000 3.000000 -4.000000
v -4.000000 3.000000 -4.000000
v -4.000000 3.000000 4.000000
v 0.700000 0.000000 -4.000000
v -0.700000 0.000000 -4.000000
v 0.700000 2.200000 -4.000000
v -0.700000 2.200000 -4.000000
v 0.700000 0.000000 4.000000
v -0.700000 0.000000 4.000000
v 0.700000 2.200000 4.000000
v -0.700000 2.200000 4.000000
v 4.250000 3.000000 -4.250000
v -4.250000 3.000000 -4.250000
v -4.250000 3.000000 4.250000
v 4.250000 3.000000 4.250000
v 0.000000 4.500000 -1.500000
v 0.000000 4.500000 1.500000
vn 1.0000 -0.0000 -0.0000
vn -1.0000 -0.0000 -0.0000
vn -0.0000 -0.0000 -1.0000
vn -0.0000 -0.0000 1.0000
vn -0.0000 0.8779 -0.4789
vn -0.0000 0.8779 0.4789
vn 0.3328 0.9430 -0.0000
vn -0.3328 0.9430 -0.0000
s 0
usemtl Mat_Kain_Teflon
f 2//1 5//1 1//1
f 4//2 7//2 3//2
f 2//3 11//3 6//3
f 3//3 12//3 10//3
f 12//3 6//3 11//3
f 4//4 15//4 8//4
f 1//4 16//4 14//4
f 15//4 5//4 8//4
f 17//5 18//5 21//5
f 19//6 20//6 22//6
f 21//7 20//7 17//7
f 18//8 22//8 21//8
f 2//1 6//1 5//1
f 4//2 8//2 7//2
f 2//3 9//3 11//3
f 3//3 7//3 12//3
f 12//3 7//3 6//3
f 4//4 13//4 15//4
f 1//4 5//4 16//4
f 15//3 16//3 5//3
f 21//7 22//7 20//7
f 18//8 19//8 22//8
o Tenda_Baja
v 4.170000 3.000000 4.250000
v 4.250000 3.000000 4.250000
v 4.250000 3.000000 -4.250000
v 4.170000 3.000000 -4.250000
v 4.170000 3.070000 4.250000
v 4.250000 3.070000 4.250000
v 4.250000 3.070000 -4.250000
v 4.170000 3.070000 -4.250000
v -4.250000 3.000000 4.250000
v -4.170000 3.000000 4.250000
v -4.170000 3.000000 -4.250000
v -4.250000 3.000000 -4.250000
v -4.250000 3.070000 4.250000
v -4.170000 3.070000 4.250000
v -4.170000 3.070000 -4.250000
v -4.250000 3.070000 -4.250000
v -4.250000 3.000000 -4.170000
v 4.250000 3.000000 -4.170000
v 4.250000 3.000000 -4.250000
v -4.250000 3.000000 -4.250000
v -4.250000 3.070000 -4.170000
v 4.250000 3.070000 -4.170000
v 4.250000 3.070000 -4.250000
v -4.250000 3.070000 -4.250000
v -4.250000 3.000000 4.250000
v 4.250000 3.000000 4.250000
v 4.250000 3.000000 4.170000
v -4.250000 3.000000 4.170000
v -4.250000 3.070000 4.250000
v 4.250000 3.070000 4.250000
v 4.250000 3.070000 4.170000
v -4.250000 3.070000 4.170000
v 3.840000 0.000000 -3.840000
v 3.960000 0.000000 -3.840000
v 3.960000 0.000000 -3.960000
v 3.840000 0.000000 -3.960000
v 3.840000 3.000000 -3.840000
v 3.960000 3.000000 -3.840000
v 3.960000 3.000000 -3.960000
v 3.840000 3.000000 -3.960000
v -3.960000 0.000000 -3.840000
v -3.840000 0.000000 -3.840000
v -3.840000 0.000000 -3.960000
v -3.960000 0.000000 -3.960000
v -3.960000 3.000000 -3.840000
v -3.840000 3.000000 -3.840000
v -3.840000 3.000000 -3.960000
v -3.960000 3.000000 -3.960000
v -3.960000 0.000000 3.960000
v -3.840000 0.000000 3.960000
v -3.840000 0.000000 3.840000
v -3.960000 0.000000 3.840000
v -3.960000 3.000000 3.960000
v -3.840000 3.000000 3.960000
v -3.840000 3.000000 3.840000
v -3.960000 3.000000 3.840000
v 3.840000 0.000000 3.960000
v 3.960000 0.000000 3.960000
v 3.960000 0.000000 3.840000
v 3.840000 0.000000 3.840000
v 3.840000 3.000000 3.960000
v 3.960000 3.000000 3.960000
v 3.960000 3.000000 3.840000
v 3.840000 3.000000 3.840000
v -0.250000 4.500000 1.500000
v 0.250000 4.500000 1.500000
v 0.250000 4.500000 -1.500000
v -0.250000 4.500000 -1.500000
v -0.250000 4.750000 1.500000
v 0.250000 4.750000 1.500000
v 0.250000 4.750000 -1.500000
v -0.250000 4.750000 -1.500000
vn -0.0000 -1.0000 -0.0000
vn -0.0000 1.0000 -0.0000
vn -0.0000 -0.0000 1.0000
vn -0.0000 -0.0000 -1.0000
vn -1.0000 -0.0000 -0.0000
vn 1.0000 -0.0000 -0.0000
s 0
usemtl Mat_Baja
f 25//9 23//9 26//9
f 28//10 30//10 27//10
f 24//11 27//11 23//11
f 26//12 29//12 25//12
f 27//13 26//13 23//13
f 25//14 28//14 24//14
f 33//9 31//9 34//9
f 36//10 38//10 35//10
f 32//11 35//11 31//11
f 34//12 37//12 33//12
f 35//13 34//13 31//13
f 33//14 36//14 32//14
f 41//9 39//9 42//9
f 44//10 46//10 43//10
f 40//11 43//11 39//11
f 42//12 45//12 41//12
f 43//13 42//13 39//13
f 41//14 44//14 40//14
f 49//9 47//9 50//9
f 52//10 54//10 51//10
f 48//11 51//11 47//11
f 50//12 53//12 49//12
f 51//13 50//13 47//13
f 49//14 52//14 48//14
f 57//9 55//9 58//9
f 60//10 62//10 59//10
f 56//11 59//11 55//11
f 58//12 61//12 57//12
f 59//13 58//13 55//13
f 57//14 60//14 56//14
f 65//9 63//9 66//9
f 68//10 70//10 67//10
f 64//11 67//11 63//11
f 66//12 69//12 65//12
f 67//13 66//13 63//13
f 65//14 68//14 64//14
f 73//9 71//9 74//9
f 76//10 78//10 75//10
f 72//11 75//11 71//11
f 74//12 77//12 73//12
f 75//13 74//13 71//13
f 73//14 76//14 72//14
f 81//9 79//9 82//9
f 84//10 86//10 83//10
f 80//11 83//11 79//11
f 82//12 85//12 81//12
f 83//13 82//13 79//13
f 81//14 84//14 80//14
f 89//9 87//9 90//9
f 92//10 94//10 91//10
f 88//11 91//11 87//11
f 90//12 93//12 89//12
f 91//13 90//13 87//13
f 89//14 92//14 88//14
f 25//9 24//9 23//9
f 28//10 29//10 30//10
f 24//11 28//11 27//11
f 26//12 30//12 29//12
f 27//13 30//13 26//13
f 25//14 29//14 28//14
f 33//9 32//9 31//9
f 36//10 37//10 38//10
f 32//11 36//11 35//11
f 34//12 38//12 37//12
f 35//13 38//13 34//13
f 33//14 37//14 36//14
f 41//9 40//9 39//9
f 44//10 45//10 46//10
f 40//11 44//11 43//11
f 42//12 46//12 45//12
f 43//13 46//13 42//13
f 41//14 45//14 44//14
f 49//9 48//9 47//9
f 52//10 53//10 54//10
f 48//11 52//11 51//11
f 50//12 54//12 53//12
f 51//13 54//13 50//13
f 49//14 53//14 52//14
f 57//9 56//9 55//9
f 60//10 61//10 62//10
f 56//11 60//11 59//11
f 58//12 62//12 61//12
f 59//13 62//13 58//13
f 57//14 61//14 60//14
f 65//9 64//9 63//9
f 68//10 69//10 70//10
f 64//11 68//11 67//11
f 66//12 70//12 69//12
f 67//13 70//13 66//13
f 65//14 69//14 68//14
f 73//9 72//9 71//9
f 76//10 77//10 78//10
f 72//11 76//11 75//11
f 74//12 78//12 77//12
f 75//13 78//13 74//13
f 73//14 77//14 76//14
f 81//9 80//9 79//9
f 84//10 85//10 86//10
f 80//11 84//11 83//11
f 82//12 86//12 85//12
f 83//13 86//13 82//13
f 81//14 85//14 84//14
f 89//9 88//9 87//9
f 92//10 93//10 94//10
f 88//11 92//11 91//11
f 90//12 94//12 93//12
f 91//13 94//13 90//13
f 89//14 93//14 92//14
